<?xml version="1.0" encoding="UTF-8" standalone="no"?>
<!-- Created with Inkscape (http://www.inkscape.org/) -->

<svg
   xmlns:dc="http://purl.org/dc/elements/1.1/"
   xmlns:cc="http://creativecommons.org/ns#"
   xmlns:rdf="http://www.w3.org/1999/02/22-rdf-syntax-ns#"
   xmlns:svg="http://www.w3.org/2000/svg"
   xmlns="http://www.w3.org/2000/svg"
   xmlns:sodipodi="http://sodipodi.sourceforge.net/DTD/sodipodi-0.dtd"
   xmlns:inkscape="http://www.inkscape.org/namespaces/inkscape"
   width="210mm"
   height="297mm"
   viewBox="0 0 210 297"
   version="1.1"
   id="svg252"
   inkscape:version="0.92.5 (2060ec1f9f, 2020-04-08)"
   sodipodi:docname="apples.svg">
  <defs
     id="defs246" />
  <sodipodi:namedview
     id="base"
     pagecolor="#ffffff"
     bordercolor="#666666"
     borderopacity="1.0"
     inkscape:pageopacity="0.0"
     inkscape:pageshadow="2"
     inkscape:zoom="0.49497475"
     inkscape:cx="748.54867"
     inkscape:cy="268.54982"
     inkscape:document-units="mm"
     inkscape:current-layer="layer1"
     showgrid="false"
     inkscape:window-width="2488"
     inkscape:window-height="1330"
     inkscape:window-x="72"
     inkscape:window-y="61"
     inkscape:window-maximized="1" />
  <metadata
     id="metadata249">
    <rdf:RDF>
      <cc:Work
         rdf:about="">
        <dc:format>image/svg+xml</dc:format>
        <dc:type
           rdf:resource="http://purl.org/dc/dcmitype/StillImage" />
        <dc:title></dc:title>
      </cc:Work>
    </rdf:RDF>
  </metadata>
  <g
     inkscape:label="Layer 1"
     inkscape:groupmode="layer"
     id="layer1">
    <path
       d="m 75.142861,62.088354 c 0.289983,0.90381 0.545042,1.86407 0.841021,2.87161 0.995539,3.38596 1.486254,6.76275 0.981429,10.287 -0.934156,6.52039 -4.939948,12.36239 -10.727973,15.52257 -3.336573,1.8221 -7.129638,2.68817 -10.922352,2.64125 -7.652667,0.61701 -15.061141,-3.31858 -18.655488,-10.34062 -1.950756,-3.81071 -3.763681,-8.51253 -3.011276,-12.8651 0.694796,-4.02026 3.796771,-7.4422 7.133978,-9.56663 5.574982,-3.54859 13.101284,-5.48005 19.633598,-5.96794 3.40078,-0.25365 6.955721,-0.0967 9.99984,1.44004 2.878667,1.45344 3.933825,3.50555 4.727223,5.97782"
       style="fill:#ef3167;fill-opacity:1;fill-rule:nonzero;stroke:none;stroke-width:0.03527778"
       id="path16"
       inkscape:connector-curvature="0" />
    <path
       d="m 43.81884,45.092904 c 0.167711,-0.27799 0.378107,-0.53128 0.628227,-0.74753 1.218318,-1.0527 3.289935,-1.02236 4.065622,0.56515 0.324274,0.66392 0.246557,1.38466 0.24945,2.09692 0.0034,0.82198 0.04448,1.64819 0.06311,2.47086 0.02561,1.12889 0.196638,2.65854 -0.780662,3.47134 -2.710604,2.25531 -4.545189,-4.18042 -4.685736,-5.88505 -0.0568,-0.68862 0.106504,-1.38502 0.459987,-1.97169"
       style="fill:#b15e32;fill-opacity:1;fill-rule:nonzero;stroke:none;stroke-width:0.03527778"
       id="path18"
       inkscape:connector-curvature="0" />
    <path
       d="m 44.080777,43.804914 c 0.04357,-0.77929 0.218299,-1.67182 0.901806,-2.04825 0.538269,-0.29633 1.201632,-0.16051 1.799026,-0.0166 0.683789,0.1644 1.36786,0.32879 2.051755,0.4932 0.273262,0.066 0.572171,0.14852 0.729263,0.3817 0.345193,0.51294 -0.255623,1.26931 -0.46027,1.7251 -0.676874,1.50848 -0.947949,3.20042 -0.935143,4.86941 0.0079,1.05374 0.170357,2.09656 0.281129,3.14219 0.05803,0.54857 0.452966,2.29129 -0.195404,2.63772 -1.10423,0.5902 -2.613872,-3.23709 -2.89567,-3.9303 -0.928512,-2.28529 -1.414816,-4.78544 -1.276492,-7.25419 z"
       style="fill:none;stroke:#100f0d;stroke-width:1.05833328;stroke-linecap:round;stroke-linejoin:round;stroke-miterlimit:10;stroke-dasharray:none;stroke-opacity:1"
       id="path22"
       inkscape:connector-curvature="0" />
    <path
       d="m 65.369857,52.648364 c 8.095898,3.55918 11.997266,17.79482 8.006291,26.57334"
       style="fill:none;stroke:#100f0d;stroke-width:1.05833328;stroke-linecap:round;stroke-linejoin:round;stroke-miterlimit:10;stroke-dasharray:none;stroke-opacity:1"
       id="path24"
       inkscape:connector-curvature="0" />
    <path
       d="m 71.482438,76.239674 c -0.229658,2.05987 -1.196623,4.02978 -2.685344,5.47194"
       style="fill:none;stroke:#100f0d;stroke-width:1.05833328;stroke-linecap:round;stroke-linejoin:round;stroke-miterlimit:10;stroke-dasharray:none;stroke-opacity:1"
       id="path26"
       inkscape:connector-curvature="0" />
    <path
       d="m 35.00684,63.693134 c -1.164449,1.18921 -1.750519,2.92065 -1.547954,4.57271"
       style="fill:none;stroke:#100f0d;stroke-width:1.05833328;stroke-linecap:round;stroke-linejoin:round;stroke-miterlimit:10;stroke-dasharray:none;stroke-opacity:1"
       id="path28"
       inkscape:connector-curvature="0" />
    <path
       d="m 35.262462,67.354264 c -0.145238,0.60536 -0.08393,1.25836 0.171415,1.82598"
       style="fill:none;stroke:#100f0d;stroke-width:1.05833328;stroke-linecap:round;stroke-linejoin:round;stroke-miterlimit:10;stroke-dasharray:none;stroke-opacity:1"
       id="path30"
       inkscape:connector-curvature="0" />
    <path
       d="m 48.199211,89.684744 c 1.227667,0.635 2.596621,0.99554 3.977958,1.04704"
       style="fill:none;stroke:#100f0d;stroke-width:1.05833328;stroke-linecap:round;stroke-linejoin:round;stroke-miterlimit:10;stroke-dasharray:none;stroke-opacity:1"
       id="path32"
       inkscape:connector-curvature="0" />
    <path
       inkscape:connector-curvature="0"
       id="path274"
       style="fill:#ef3167;fill-opacity:1;fill-rule:nonzero;stroke:none;stroke-width:0.03527778"
       d="m 75.143097,142.97511 c 0.28999,0.90381 0.54505,1.86407 0.84103,2.87161 0.99553,3.38596 1.48625,6.76275 0.98142,10.287 -0.93415,6.52039 -4.93994,12.36239 -10.72797,15.52257 -3.33657,1.8221 -7.12964,2.68817 -10.92235,2.64125 -7.65267,0.61701 -15.06114,-3.31858 -18.65549,-10.34062 -1.950755,-3.81072 -3.76368,-8.51253 -3.011275,-12.8651 0.694796,-4.02026 3.796775,-7.4422 7.133975,-9.56663 5.57499,-3.54859 13.10129,-5.48005 19.6336,-5.96794 3.40078,-0.25365 6.95572,-0.0967 9.99984,1.44004 2.87867,1.45344 3.93383,3.50555 4.72722,5.97782" />
    <path
       inkscape:connector-curvature="0"
       id="path276"
       style="fill:#b15e32;fill-opacity:1;fill-rule:nonzero;stroke:none;stroke-width:0.03527778"
       d="m 43.819077,125.97968 c 0.16771,-0.27799 0.37811,-0.53128 0.62823,-0.74753 1.21832,-1.05269 3.28994,-1.02235 4.06562,0.56515 0.32428,0.66392 0.24656,1.38465 0.24945,2.09691 0.003,0.82197 0.0445,1.64818 0.0631,2.47085 0.0256,1.12889 0.19664,2.65854 -0.78066,3.47134 -2.7106,2.25531 -4.54519,-4.18042 -4.68574,-5.88504 -0.0568,-0.68862 0.10651,-1.38501 0.45999,-1.97168" />
    <path
       inkscape:connector-curvature="0"
       id="path278"
       style="fill:none;stroke:#100f0d;stroke-width:1.05833328;stroke-linecap:round;stroke-linejoin:round;stroke-miterlimit:10;stroke-dasharray:none;stroke-opacity:1"
       d="m 44.081017,124.69169 c 0.0436,-0.77928 0.2183,-1.67181 0.90181,-2.04823 0.53827,-0.29633 1.20163,-0.16051 1.79902,-0.0166 0.68379,0.1644 1.36786,0.32879 2.05176,0.49319 0.27326,0.066 0.57217,0.14852 0.72926,0.3817 0.34519,0.51294 -0.25562,1.2693 -0.46027,1.72509 -0.67687,1.50847 -0.94795,3.2004 -0.93514,4.86939 0.008,1.05374 0.17035,2.09656 0.28113,3.14219 0.058,0.54857 0.45296,2.29129 -0.19541,2.63772 -1.10423,0.5902 -2.61387,-3.23709 -2.89567,-3.9303 -0.92851,-2.28529 -1.41481,-4.78543 -1.27649,-7.25417 z" />
    <path
       inkscape:connector-curvature="0"
       id="path280"
       style="fill:none;stroke:#100f0d;stroke-width:1.05833328;stroke-linecap:round;stroke-linejoin:round;stroke-miterlimit:10;stroke-dasharray:none;stroke-opacity:1"
       d="m 65.370097,133.53512 c 8.0959,3.55918 11.99727,17.79482 8.00629,26.57333" />
    <path
       inkscape:connector-curvature="0"
       id="path282"
       style="fill:none;stroke:#100f0d;stroke-width:1.05833328;stroke-linecap:round;stroke-linejoin:round;stroke-miterlimit:10;stroke-dasharray:none;stroke-opacity:1"
       d="m 71.482677,157.12643 c -0.22966,2.05986 -1.19662,4.02977 -2.68534,5.47194" />
    <path
       inkscape:connector-curvature="0"
       id="path284"
       style="fill:none;stroke:#100f0d;stroke-width:1.05833328;stroke-linecap:round;stroke-linejoin:round;stroke-miterlimit:10;stroke-dasharray:none;stroke-opacity:1"
       d="m 35.00708,144.57989 c -1.164449,1.18921 -1.750519,2.92065 -1.547954,4.57271" />
    <path
       inkscape:connector-curvature="0"
       id="path286"
       style="fill:none;stroke:#100f0d;stroke-width:1.05833328;stroke-linecap:round;stroke-linejoin:round;stroke-miterlimit:10;stroke-dasharray:none;stroke-opacity:1"
       d="m 35.262702,148.24102 c -0.145238,0.60536 -0.08393,1.25836 0.171415,1.82598" />
    <path
       inkscape:connector-curvature="0"
       id="path288"
       style="fill:none;stroke:#100f0d;stroke-width:1.05833328;stroke-linecap:round;stroke-linejoin:round;stroke-miterlimit:10;stroke-dasharray:none;stroke-opacity:1"
       d="m 48.199447,170.5715 c 1.22767,0.635 2.59663,0.99554 3.97796,1.04704" />
    <path
       d="m 154.27734,142.97511 c 0.28999,0.90381 0.54505,1.86407 0.84103,2.87161 0.99553,3.38596 1.48626,6.76275 0.98142,10.287 -0.93415,6.52039 -4.93996,12.36239 -10.72803,15.52257 -3.33658,1.8221 -7.12967,2.68817 -10.92241,2.64125 -7.65271,0.61701 -15.06122,-3.31858 -18.65559,-10.34062 -1.95077,-3.81072 -3.7637,-8.51253 -3.01129,-12.8651 0.6948,-4.02026 3.79679,-7.4422 7.13401,-9.56663 5.57502,-3.54859 13.10137,-5.48005 19.63371,-5.96794 3.4008,-0.25365 6.95576,-0.0967 9.9999,1.44004 2.87868,1.45344 3.93385,3.50555 4.72725,5.97782"
       style="fill:#ef3167;fill-opacity:1;fill-rule:nonzero;stroke:none;stroke-width:0.03527778"
       id="path290"
       inkscape:connector-curvature="0" />
    <path
       d="m 122.95314,125.97968 c 0.16771,-0.27799 0.37811,-0.53128 0.62823,-0.74753 1.21833,-1.05269 3.28996,-1.02235 4.06565,0.56515 0.32428,0.66392 0.24656,1.38465 0.24945,2.09691 0.003,0.82197 0.0445,1.64818 0.0631,2.47085 0.0256,1.12889 0.19664,2.65854 -0.78067,3.47134 -2.71061,2.25531 -4.54521,-4.18042 -4.68576,-5.88504 -0.0568,-0.68862 0.10651,-1.38501 0.45999,-1.97168"
       style="fill:#b15e32;fill-opacity:1;fill-rule:nonzero;stroke:none;stroke-width:0.03527778"
       id="path292"
       inkscape:connector-curvature="0" />
    <path
       d="m 123.21508,124.69169 c 0.0436,-0.77928 0.2183,-1.67181 0.90181,-2.04823 0.53828,-0.29633 1.20164,-0.16051 1.79903,-0.0166 0.6838,0.1644 1.36787,0.32879 2.05178,0.49319 0.27326,0.066 0.57217,0.14852 0.72926,0.3817 0.34519,0.51294 -0.25562,1.2693 -0.46027,1.72509 -0.67688,1.50847 -0.94796,3.2004 -0.93515,4.86939 0.008,1.05374 0.17035,2.09656 0.28114,3.14219 0.058,0.54857 0.45296,2.29129 -0.19542,2.63772 -1.10423,0.5902 -2.61388,-3.23709 -2.89568,-3.9303 -0.92852,-2.28529 -1.41482,-4.78543 -1.2765,-7.25417 z"
       style="fill:none;stroke:#100f0d;stroke-width:1.05833328;stroke-linecap:round;stroke-linejoin:round;stroke-miterlimit:10;stroke-dasharray:none;stroke-opacity:1"
       id="path294"
       inkscape:connector-curvature="0" />
    <path
       d="m 144.50428,133.53512 c 8.09595,3.55918 11.99734,17.79482 8.00634,26.57333"
       style="fill:none;stroke:#100f0d;stroke-width:1.05833328;stroke-linecap:round;stroke-linejoin:round;stroke-miterlimit:10;stroke-dasharray:none;stroke-opacity:1"
       id="path296"
       inkscape:connector-curvature="0" />
    <path
       d="m 150.61689,157.12643 c -0.22966,2.05986 -1.19662,4.02977 -2.68535,5.47194"
       style="fill:none;stroke:#100f0d;stroke-width:1.05833328;stroke-linecap:round;stroke-linejoin:round;stroke-miterlimit:10;stroke-dasharray:none;stroke-opacity:1"
       id="path298"
       inkscape:connector-curvature="0" />
    <path
       d="m 114.14109,144.57989 c -1.16445,1.18921 -1.75053,2.92065 -1.54796,4.57271"
       style="fill:none;stroke:#100f0d;stroke-width:1.05833328;stroke-linecap:round;stroke-linejoin:round;stroke-miterlimit:10;stroke-dasharray:none;stroke-opacity:1"
       id="path300"
       inkscape:connector-curvature="0" />
    <path
       d="m 114.39672,148.24102 c -0.14525,0.60536 -0.0839,1.25836 0.17141,1.82598"
       style="fill:none;stroke:#100f0d;stroke-width:1.05833328;stroke-linecap:round;stroke-linejoin:round;stroke-miterlimit:10;stroke-dasharray:none;stroke-opacity:1"
       id="path302"
       inkscape:connector-curvature="0" />
    <path
       d="m 127.33353,170.5715 c 1.22768,0.635 2.59665,0.99554 3.97799,1.04704"
       style="fill:none;stroke:#100f0d;stroke-width:1.05833328;stroke-linecap:round;stroke-linejoin:round;stroke-miterlimit:10;stroke-dasharray:none;stroke-opacity:1"
       id="path304"
       inkscape:connector-curvature="0" />
    <path
       d="m 74.954689,270.73801 c -18.34973,16.27709 -52.624915,-12.16484 -29.9219,-29.89827 4.13914,-2.63737 9.31051,-3.36621 12.71234,-7.14693 2.16747,-2.40418 3.23039,-5.60599 6.01628,-7.47395 4.64679,-3.11432 12.08898,-0.12911 13.22493,5.37104 0.67804,3.28048 -0.81492,6.31014 -0.9585,9.54899 0.83467,11.66389 10.30323,17.52671 -1.07315,29.59912"
       style="fill:#b1de50;fill-opacity:1;fill-rule:nonzero;stroke:none;stroke-width:0.03527778"
       id="path34"
       inkscape:connector-curvature="0" />
    <path
       d="m 65.961679,217.10097 c 0.4639,-1.52153 0.35172,-3.09916 -0.10125,-4.60481 -0.91792,-3.05294 -4.0513,-5.92243 -7.79462,-5.45888 -0.43639,0.054 -0.92287,0.19014 -1.19803,0.5468 -0.45685,0.59161 -0.23989,1.94028 -0.18521,2.58092 0.0787,0.92428 0.13053,1.85491 0.23777,2.77319 0.21872,1.87078 0.68157,3.72639 1.92405,5.10787 1.07209,1.19274 2.65924,2.02953 4.49545,1.8983 1.57374,-0.11254 2.11419,-1.35079 2.55093,-2.62432 0.0251,-0.073 0.0487,-0.14605 0.0709,-0.21907"
       style="fill:#57c5a5;fill-opacity:1;fill-rule:nonzero;stroke:none;stroke-width:0.03527778"
       id="path36"
       inkscape:connector-curvature="0" />
    <path
       d="m 76.499859,215.47184 c 1.08444,-0.17145 2.49872,-0.21484 3.31752,0.65546 0.91369,0.97084 0.59055,2.79365 0.0272,3.86151 -0.77964,1.47743 -2.35832,2.25954 -3.96769,2.4451 -1.43686,0.16545 -3.56729,0.0843 -4.29295,-1.42663 -1.33209,-2.7746 2.6857,-5.18372 4.91596,-5.53544"
       style="fill:#b15e32;fill-opacity:1;fill-rule:nonzero;stroke:none;stroke-width:0.03527778"
       id="path38"
       inkscape:connector-curvature="0" />
    <path
       d="m 70.646569,268.42837 c -9.75148,9.0445 -27.68671,4.03472 -34.417,-6.45054 -1.67957,-2.61655 -2.655,-5.63245 -2.79329,-8.74078 -0.25612,-5.7658 2.37807,-11.57746 7.28803,-14.7066 4.13985,-2.63807 9.31122,-3.36691 12.7127,-7.14763 2.16782,-2.40418 3.23039,-5.60634 6.01663,-7.47395 4.64643,-3.11397 12.08898,-0.12876 13.22528,5.37069 0.67734,3.28084 -0.81562,6.31049 -0.95885,9.54934 -0.22542,5.08071 2.95205,9.22691 4.0513,14.00669 1.30316,5.67796 -0.89641,11.67024 -5.1248,15.59278 z"
       style="fill:none;stroke:#100f0d;stroke-width:1.05833328;stroke-linecap:round;stroke-linejoin:round;stroke-miterlimit:10;stroke-dasharray:none;stroke-opacity:1"
       id="path40"
       inkscape:connector-curvature="0" />
    <path
       d="m 68.619159,216.52982 c 0.363,-1.663 0.11112,-3.43711 -0.49601,-5.15973 -0.98778,-2.80529 -3.25367,-5.1241 -5.87939,-6.33906 -1.60867,-0.74436 -3.314,-1.29928 -5.00557,-1.45591 -0.25223,-0.0233 -0.57079,0.0141 -0.60078,0.2667 -0.0279,0.236 0.20708,0.42439 0.3489,0.59513 0.19156,0.23072 0.36018,0.48084 0.50377,0.7426 0.41486,0.75635 0.508,1.56845 0.64064,2.37666 0.51682,3.1496 0.71579,6.77192 3.02436,9.43081 0.94757,1.09149 2.16606,1.86549 3.4036,2.49414 2.19005,1.11196 3.49709,-0.73449 4.00368,-2.71251 0.0201,-0.0794 0.0392,-0.1591 0.0568,-0.23883 z"
       style="fill:none;stroke:#100f0d;stroke-width:1.05833328;stroke-linecap:round;stroke-linejoin:round;stroke-miterlimit:10;stroke-dasharray:none;stroke-opacity:1"
       id="path42"
       inkscape:connector-curvature="0" />
    <path
       d="m 79.831489,216.88119 c 0.66428,0.002 1.43122,0.11147 1.78153,0.67592 0.27587,0.4445 0.18944,1.01459 0.0938,1.52894 -0.10936,0.58878 -0.21908,1.17757 -0.32879,1.76636 -0.0437,0.2353 -0.1009,0.49318 -0.2921,0.63676 -0.34784,0.26176 -0.82621,-0.0272 -1.18181,-0.27764 -2.42993,-1.71379 -5.93337,-1.7272 -8.37635,-0.0324 -0.35172,0.24413 -1.52824,1.30387 -1.94204,0.95039 -1.03188,-0.88195 2.80599,-3.10092 3.40042,-3.43677 2.07716,-1.17369 4.45629,-1.82068 6.8453,-1.81151 z"
       style="fill:none;stroke:#100f0d;stroke-width:1.05833328;stroke-linecap:round;stroke-linejoin:round;stroke-miterlimit:10;stroke-dasharray:none;stroke-opacity:1"
       id="path44"
       inkscape:connector-curvature="0" />
    <path
       d="m 69.753339,228.34717 c 0.74153,1.78576 0.83326,3.83364 0.25364,5.67831"
       style="fill:none;stroke:#100f0d;stroke-width:1.05833328;stroke-linecap:round;stroke-linejoin:round;stroke-miterlimit:10;stroke-dasharray:none;stroke-opacity:1"
       id="path46"
       inkscape:connector-curvature="0" />
    <path
       d="m 67.584459,228.44136 c 0.47695,0.48789 0.69356,1.21603 0.56091,1.88489"
       style="fill:none;stroke:#100f0d;stroke-width:1.05833328;stroke-linecap:round;stroke-linejoin:round;stroke-miterlimit:10;stroke-dasharray:none;stroke-opacity:1"
       id="path48"
       inkscape:connector-curvature="0" />
    <path
       d="m 42.648009,241.01083 c -2.58092,2.05705 -4.48733,4.94665 -5.36328,8.12871 -0.8756,3.18206 -0.71614,6.64034 0.44838,9.7282"
       style="fill:none;stroke:#100f0d;stroke-width:1.05833328;stroke-linecap:round;stroke-linejoin:round;stroke-miterlimit:10;stroke-dasharray:none;stroke-opacity:1"
       id="path50"
       inkscape:connector-curvature="0" />
    <path
       d="m 39.974309,257.17299 c 0.0162,0.84808 0.30762,1.68805 0.81915,2.36467"
       style="fill:none;stroke:#100f0d;stroke-width:1.05833328;stroke-linecap:round;stroke-linejoin:round;stroke-miterlimit:10;stroke-dasharray:none;stroke-opacity:1"
       id="path52"
       inkscape:connector-curvature="0" />
    <path
       d="m 72.190319,257.54941 c -0.65969,3.24414 -2.41511,6.25581 -4.91242,8.42892 -2.49767,2.17346 -5.72312,3.49532 -9.02759,3.70064"
       style="fill:none;stroke:#100f0d;stroke-width:1.05833328;stroke-linecap:round;stroke-linejoin:round;stroke-miterlimit:10;stroke-dasharray:none;stroke-opacity:1"
       id="path54"
       inkscape:connector-curvature="0" />
    <path
       d="m 63.810089,210.59574 c 1.19098,2.1075 1.99566,4.47711 2.36079,6.95008"
       style="fill:none;stroke:#100f0d;stroke-width:1.05833328;stroke-linecap:round;stroke-linejoin:round;stroke-miterlimit:10;stroke-dasharray:none;stroke-opacity:1"
       id="path56"
       inkscape:connector-curvature="0" />
    <path
       inkscape:connector-curvature="0"
       id="path354"
       style="fill:#b1de50;fill-opacity:1;fill-rule:nonzero;stroke:none;stroke-width:0.03527778"
       d="m 154.08891,270.73836 c -18.34983,16.27709 -52.62514,-12.16484 -29.92207,-29.89827 4.13916,-2.63737 9.31056,-3.36621 12.71241,-7.14693 2.16748,-2.40418 3.23041,-5.60599 6.01632,-7.47395 4.64681,-3.11432 12.08905,-0.12911 13.225,5.37104 0.67805,3.28048 -0.81492,6.31014 -0.9585,9.54899 0.83467,11.66389 10.30328,17.52671 -1.07316,29.59912" />
    <path
       inkscape:connector-curvature="0"
       id="path356"
       style="fill:#57c5a5;fill-opacity:1;fill-rule:nonzero;stroke:none;stroke-width:0.03527778"
       d="m 145.09585,217.10132 c 0.4639,-1.52153 0.35172,-3.09916 -0.10125,-4.60481 -0.91793,-3.05294 -4.05132,-5.92243 -7.79467,-5.45888 -0.43639,0.054 -0.92287,0.19014 -1.19803,0.5468 -0.45685,0.59161 -0.23989,1.94028 -0.18521,2.58092 0.0787,0.92428 0.13053,1.85491 0.23777,2.77319 0.21872,1.87078 0.68157,3.72639 1.92406,5.10787 1.07209,1.19274 2.65925,2.02953 4.49547,1.8983 1.57375,-0.11254 2.11421,-1.35079 2.55095,-2.62432 0.0251,-0.073 0.0487,-0.14605 0.0709,-0.21907" />
    <path
       inkscape:connector-curvature="0"
       id="path358"
       style="fill:#b15e32;fill-opacity:1;fill-rule:nonzero;stroke:none;stroke-width:0.03527778"
       d="m 155.63409,215.47219 c 1.08445,-0.17145 2.49873,-0.21484 3.31754,0.65546 0.91369,0.97084 0.59055,2.79365 0.0272,3.86151 -0.77965,1.47743 -2.35833,2.25954 -3.96771,2.4451 -1.43687,0.16545 -3.56731,0.0843 -4.29298,-1.42663 -1.3321,-2.7746 2.68572,-5.18372 4.91599,-5.53544" />
    <path
       inkscape:connector-curvature="0"
       id="path360"
       style="fill:none;stroke:#100f0d;stroke-width:1.05833328;stroke-linecap:round;stroke-linejoin:round;stroke-miterlimit:10;stroke-dasharray:none;stroke-opacity:1"
       d="m 149.78077,268.42872 c -9.75154,9.0445 -27.68687,4.03472 -34.4172,-6.45054 -1.67957,-2.61655 -2.655,-5.63245 -2.79329,-8.74078 -0.25612,-5.7658 2.37807,-11.57746 7.28806,-14.7066 4.13987,-2.63807 9.31127,-3.36691 12.71277,-7.14763 2.16783,-2.40418 3.23041,-5.60634 6.01666,-7.47395 4.64646,-3.11397 12.08905,-0.12876 13.22536,5.37069 0.67734,3.28084 -0.81563,6.31049 -0.95886,9.54934 -0.22542,5.08071 2.95207,9.22691 4.05132,14.00669 1.30317,5.67796 -0.89641,11.67024 -5.12482,15.59278 z" />
    <path
       inkscape:connector-curvature="0"
       id="path362"
       style="fill:none;stroke:#100f0d;stroke-width:1.05833328;stroke-linecap:round;stroke-linejoin:round;stroke-miterlimit:10;stroke-dasharray:none;stroke-opacity:1"
       d="m 147.75334,216.53017 c 0.36301,-1.663 0.11112,-3.43711 -0.49601,-5.15973 -0.98778,-2.80529 -3.25369,-5.1241 -5.87942,-6.33906 -1.60868,-0.74436 -3.31402,-1.29928 -5.0056,-1.45591 -0.25223,-0.0233 -0.57079,0.0141 -0.60078,0.2667 -0.0279,0.236 0.20708,0.42439 0.3489,0.59513 0.19156,0.23072 0.36018,0.48084 0.50377,0.7426 0.41486,0.75635 0.508,1.56845 0.64064,2.37666 0.51683,3.1496 0.7158,6.77192 3.02438,9.43081 0.94758,1.09149 2.16607,1.86549 3.40362,2.49414 2.19006,1.11196 3.49711,-0.73449 4.0037,-2.71251 0.0201,-0.0794 0.0392,-0.1591 0.0568,-0.23883 z" />
    <path
       inkscape:connector-curvature="0"
       id="path364"
       style="fill:none;stroke:#100f0d;stroke-width:1.05833328;stroke-linecap:round;stroke-linejoin:round;stroke-miterlimit:10;stroke-dasharray:none;stroke-opacity:1"
       d="m 158.96574,216.88154 c 0.66428,0.002 1.43123,0.11147 1.78154,0.67592 0.27587,0.4445 0.18944,1.01459 0.0938,1.52894 -0.10936,0.58878 -0.21908,1.17757 -0.32879,1.76636 -0.0437,0.2353 -0.1009,0.49318 -0.29211,0.63676 -0.34784,0.26176 -0.82621,-0.0272 -1.18181,-0.27764 -2.42994,-1.71379 -5.93341,-1.7272 -8.3764,-0.0324 -0.35172,0.24413 -1.52825,1.30387 -1.94205,0.95039 -1.03189,-0.88195 2.80601,-3.10092 3.40044,-3.43677 2.07717,-1.17369 4.45632,-1.82068 6.84534,-1.81151 z" />
    <path
       inkscape:connector-curvature="0"
       id="path366"
       style="fill:none;stroke:#100f0d;stroke-width:1.05833328;stroke-linecap:round;stroke-linejoin:round;stroke-miterlimit:10;stroke-dasharray:none;stroke-opacity:1"
       d="m 148.88753,228.34752 c 0.74153,1.78576 0.83327,3.83364 0.25364,5.67831" />
    <path
       inkscape:connector-curvature="0"
       id="path368"
       style="fill:none;stroke:#100f0d;stroke-width:1.05833328;stroke-linecap:round;stroke-linejoin:round;stroke-miterlimit:10;stroke-dasharray:none;stroke-opacity:1"
       d="m 146.71864,228.44171 c 0.47695,0.48789 0.69356,1.21603 0.56091,1.88489" />
    <path
       inkscape:connector-curvature="0"
       id="path370"
       style="fill:none;stroke:#100f0d;stroke-width:1.05833328;stroke-linecap:round;stroke-linejoin:round;stroke-miterlimit:10;stroke-dasharray:none;stroke-opacity:1"
       d="m 121.78205,241.01118 c -2.58094,2.05705 -4.48736,4.94665 -5.36331,8.12871 -0.87561,3.18206 -0.71615,6.64034 0.44838,9.7282" />
    <path
       inkscape:connector-curvature="0"
       id="path372"
       style="fill:none;stroke:#100f0d;stroke-width:1.05833328;stroke-linecap:round;stroke-linejoin:round;stroke-miterlimit:10;stroke-dasharray:none;stroke-opacity:1"
       d="m 119.10833,257.17334 c 0.0162,0.84808 0.30762,1.68805 0.81916,2.36467" />
    <path
       inkscape:connector-curvature="0"
       id="path374"
       style="fill:none;stroke:#100f0d;stroke-width:1.05833328;stroke-linecap:round;stroke-linejoin:round;stroke-miterlimit:10;stroke-dasharray:none;stroke-opacity:1"
       d="m 151.32453,257.54976 c -0.6597,3.24414 -2.41513,6.25581 -4.91245,8.42892 -2.49769,2.17346 -5.72315,3.49532 -9.02765,3.70064" />
    <path
       inkscape:connector-curvature="0"
       id="path376"
       style="fill:none;stroke:#100f0d;stroke-width:1.05833328;stroke-linecap:round;stroke-linejoin:round;stroke-miterlimit:10;stroke-dasharray:none;stroke-opacity:1"
       d="m 142.94425,210.59609 c 1.19098,2.1075 1.99567,4.47711 2.3608,6.95008" />
    <path
       d="m 154.08887,91.955214 c -18.34983,16.277086 -52.62514,-12.16484 -29.92207,-29.89827 4.13916,-2.63737 9.31056,-3.36621 12.71241,-7.14693 2.16748,-2.40418 3.23041,-5.60599 6.01632,-7.47395 4.64681,-3.11432 12.08905,-0.12911 13.225,5.37104 0.67805,3.28048 -0.81492,6.31014 -0.9585,9.54899 0.83467,11.66389 10.30328,17.52671 -1.07316,29.59912"
       style="fill:#b1de50;fill-opacity:1;fill-rule:nonzero;stroke:none;stroke-width:0.03527778"
       id="path378"
       inkscape:connector-curvature="0" />
    <path
       d="m 145.09581,38.318174 c 0.4639,-1.52153 0.35172,-3.09916 -0.10125,-4.60481 -0.91793,-3.05295 -4.05132,-5.92246 -7.79467,-5.4589 -0.43639,0.054 -0.92287,0.19014 -1.19803,0.5468 -0.45685,0.59162 -0.23989,1.94029 -0.18521,2.58094 0.0787,0.92428 0.13053,1.85491 0.23777,2.77319 0.21872,1.87078 0.68157,3.72639 1.92406,5.10787 1.07209,1.19274 2.65925,2.02953 4.49547,1.8983 1.57375,-0.11254 2.11421,-1.35079 2.55095,-2.62432 0.0251,-0.073 0.0487,-0.14605 0.0709,-0.21907"
       style="fill:#57c5a5;fill-opacity:1;fill-rule:nonzero;stroke:none;stroke-width:0.03527778"
       id="path380"
       inkscape:connector-curvature="0" />
    <path
       d="m 155.63405,36.689044 c 1.08445,-0.17145 2.49873,-0.21484 3.31754,0.65546 0.91369,0.97084 0.59055,2.79365 0.0272,3.86151 -0.77965,1.47743 -2.35833,2.25954 -3.96771,2.4451 -1.43687,0.16545 -3.56731,0.0843 -4.29298,-1.42663 -1.3321,-2.7746 2.68572,-5.18372 4.91599,-5.53544"
       style="fill:#b15e32;fill-opacity:1;fill-rule:nonzero;stroke:none;stroke-width:0.03527778"
       id="path382"
       inkscape:connector-curvature="0" />
    <path
       d="m 149.78073,89.645574 c -9.75154,9.0445 -27.68687,4.03472 -34.4172,-6.45054 -1.67957,-2.61655 -2.655,-5.63245 -2.79329,-8.74078 -0.25612,-5.7658 2.37807,-11.57746 7.28806,-14.7066 4.13987,-2.63807 9.31127,-3.36691 12.71277,-7.14763 2.16783,-2.40418 3.23041,-5.60634 6.01666,-7.47395 4.64646,-3.11397 12.08905,-0.12876 13.22536,5.37069 0.67734,3.28084 -0.81563,6.31049 -0.95886,9.54934 -0.22542,5.08071 2.95207,9.22691 4.05132,14.00669 1.30317,5.67796 -0.89641,11.67024 -5.12482,15.59278 z"
       style="fill:none;stroke:#100f0d;stroke-width:1.05833328;stroke-linecap:round;stroke-linejoin:round;stroke-miterlimit:10;stroke-dasharray:none;stroke-opacity:1"
       id="path384"
       inkscape:connector-curvature="0" />
    <path
       d="m 147.7533,37.747024 c 0.36301,-1.663 0.11112,-3.43711 -0.49601,-5.15973 -0.98778,-2.8053 -3.25369,-5.12413 -5.87942,-6.33909 -1.60868,-0.74437 -3.31402,-1.29929 -5.0056,-1.45592 -0.25223,-0.0233 -0.57079,0.0141 -0.60078,0.2667 -0.0279,0.236 0.20708,0.42439 0.3489,0.59513 0.19156,0.23072 0.36018,0.48084 0.50377,0.74261 0.41486,0.75635 0.508,1.56846 0.64064,2.37667 0.51683,3.14962 0.7158,6.77194 3.02438,9.43083 0.94758,1.09149 2.16607,1.86549 3.40362,2.49414 2.19006,1.11196 3.49711,-0.73449 4.0037,-2.71251 0.0201,-0.0794 0.0392,-0.1591 0.0568,-0.23883 z"
       style="fill:none;stroke:#100f0d;stroke-width:1.05833328;stroke-linecap:round;stroke-linejoin:round;stroke-miterlimit:10;stroke-dasharray:none;stroke-opacity:1"
       id="path386"
       inkscape:connector-curvature="0" />
    <path
       d="m 158.9657,38.098394 c 0.66428,0.002 1.43123,0.11147 1.78154,0.67592 0.27587,0.4445 0.18944,1.01459 0.0938,1.52894 -0.10936,0.58878 -0.21908,1.17757 -0.32879,1.76636 -0.0437,0.2353 -0.1009,0.49318 -0.29211,0.63676 -0.34784,0.26176 -0.82621,-0.0272 -1.18181,-0.27764 -2.42994,-1.71379 -5.93341,-1.7272 -8.3764,-0.0324 -0.35172,0.24413 -1.52825,1.30387 -1.94205,0.95039 -1.03189,-0.88195 2.80601,-3.10092 3.40044,-3.43677 2.07717,-1.17369 4.45632,-1.82068 6.84534,-1.81151 z"
       style="fill:none;stroke:#100f0d;stroke-width:1.05833328;stroke-linecap:round;stroke-linejoin:round;stroke-miterlimit:10;stroke-dasharray:none;stroke-opacity:1"
       id="path388"
       inkscape:connector-curvature="0" />
    <path
       d="m 148.88749,49.564374 c 0.74153,1.78576 0.83327,3.83364 0.25364,5.67831"
       style="fill:none;stroke:#100f0d;stroke-width:1.05833328;stroke-linecap:round;stroke-linejoin:round;stroke-miterlimit:10;stroke-dasharray:none;stroke-opacity:1"
       id="path390"
       inkscape:connector-curvature="0" />
    <path
       d="m 146.7186,49.658564 c 0.47695,0.48789 0.69356,1.21603 0.56091,1.88489"
       style="fill:none;stroke:#100f0d;stroke-width:1.05833328;stroke-linecap:round;stroke-linejoin:round;stroke-miterlimit:10;stroke-dasharray:none;stroke-opacity:1"
       id="path392"
       inkscape:connector-curvature="0" />
    <path
       d="m 121.78201,62.228034 c -2.58094,2.05705 -4.48736,4.94665 -5.36331,8.12871 -0.87561,3.18206 -0.71615,6.64034 0.44838,9.7282"
       style="fill:none;stroke:#100f0d;stroke-width:1.05833328;stroke-linecap:round;stroke-linejoin:round;stroke-miterlimit:10;stroke-dasharray:none;stroke-opacity:1"
       id="path394"
       inkscape:connector-curvature="0" />
    <path
       d="m 119.10829,78.390194 c 0.0162,0.84808 0.30762,1.68805 0.81916,2.36467"
       style="fill:none;stroke:#100f0d;stroke-width:1.05833328;stroke-linecap:round;stroke-linejoin:round;stroke-miterlimit:10;stroke-dasharray:none;stroke-opacity:1"
       id="path396"
       inkscape:connector-curvature="0" />
    <path
       d="m 151.32449,78.766614 c -0.6597,3.24414 -2.41513,6.25581 -4.91245,8.42892 -2.49769,2.17346 -5.72315,3.49532 -9.02765,3.70064"
       style="fill:none;stroke:#100f0d;stroke-width:1.05833328;stroke-linecap:round;stroke-linejoin:round;stroke-miterlimit:10;stroke-dasharray:none;stroke-opacity:1"
       id="path398"
       inkscape:connector-curvature="0" />
    <path
       d="m 142.94421,31.812944 c 1.19098,2.1075 1.99567,4.47711 2.3608,6.95008"
       style="fill:none;stroke:#100f0d;stroke-width:1.05833328;stroke-linecap:round;stroke-linejoin:round;stroke-miterlimit:10;stroke-dasharray:none;stroke-opacity:1"
       id="path400"
       inkscape:connector-curvature="0" />
    <path
       style="fill:none;stroke:#ff0000;stroke-width:4;stroke-linecap:butt;stroke-linejoin:miter;stroke-miterlimit:4;stroke-dasharray:none;stroke-opacity:1"
       d="M 45.12356,102.90664 142.94421,31.812944"
       id="path402"
       inkscape:connector-curvature="0" />
    <path
       inkscape:connector-curvature="0"
       id="path1209"
       d="M 142.94421,102.90664 45.12356,31.812944"
       style="fill:none;stroke:#ff0000;stroke-width:4;stroke-linecap:butt;stroke-linejoin:miter;stroke-miterlimit:4;stroke-dasharray:none;stroke-opacity:1" />
    <path
       inkscape:connector-curvature="0"
       id="path1215"
       d="m 55.7069,287.0578 97.82071,-71.09408"
       style="fill:none;stroke:#008000;stroke-width:4;stroke-linecap:butt;stroke-linejoin:miter;stroke-miterlimit:4;stroke-dasharray:none;stroke-opacity:1" />
    <path
       inkscape:connector-curvature="0"
       id="path1217"
       d="M 55.7069,287.0578 33.969423,257.40775"
       style="fill:none;stroke:#008000;stroke-width:3.9000001;stroke-linecap:butt;stroke-linejoin:miter;stroke-miterlimit:4;stroke-dasharray:none;stroke-opacity:1" />
    <path
       style="fill:none;stroke:#008000;stroke-width:4;stroke-linecap:butt;stroke-linejoin:miter;stroke-miterlimit:4;stroke-dasharray:none;stroke-opacity:1"
       d="m 55.7069,191.27803 97.82071,-71.09408"
       id="path1219"
       inkscape:connector-curvature="0" />
    <path
       style="fill:none;stroke:#008000;stroke-width:3.9000001;stroke-linecap:butt;stroke-linejoin:miter;stroke-miterlimit:4;stroke-dasharray:none;stroke-opacity:1"
       d="M 55.7069,191.27803 33.969423,161.62798"
       id="path1221"
       inkscape:connector-curvature="0" />
  </g>
</svg>
